<svg data-v-423bf9ae="" xmlns="http://www.w3.org/2000/svg" viewBox="0 0 299 90" class="iconLeft"><!----><!----><!----><g data-v-423bf9ae="" id="7dd69bab-8b82-4067-844d-c9a335c175e2" fill="white" transform="matrix(6.030150890350342,0,0,6.030150890350342,105.3868179321289,-10.326629638671875)"><path d="M5.92 8.82L5.92 8.82Q5.92 8.76 6.41 8.97L6.41 8.97L6.41 8.97Q6.90 9.17 7.29 9.70L7.29 9.70L7.29 9.70Q7.69 10.23 7.69 11.20L7.69 11.20L7.69 11.20Q7.69 12.60 7.02 13.30L7.02 13.30L7.02 13.30Q6.36 14 5.10 14L5.10 14L1.19 14L1.19 4.20L4.38 4.20L4.38 4.20Q5.15 4.20 5.75 4.35L5.75 4.35L5.75 4.35Q6.34 4.49 6.77 5.03L6.77 5.03L6.77 5.03Q7.20 5.56 7.20 6.59L7.20 6.59L7.20 6.59Q7.20 7.49 6.92 7.98L6.92 7.98L6.92 7.98Q6.64 8.47 6.28 8.67L6.28 8.67L6.28 8.67Q5.92 8.88 5.92 8.82L5.92 8.82ZM2.76 5.53L2.76 8.29L4.41 8.29L4.41 8.29Q5.03 8.29 5.29 7.93L5.29 7.93L5.29 7.93Q5.54 7.57 5.54 6.79L5.54 6.79L5.54 6.79Q5.54 6.27 5.43 6.01L5.43 6.01L5.43 6.01Q5.32 5.74 5.07 5.63L5.07 5.63L5.07 5.63Q4.82 5.53 4.35 5.53L4.35 5.53L2.76 5.53ZM4.73 12.67L4.73 12.67Q5.31 12.67 5.60 12.51L5.60 12.51L5.60 12.51Q5.89 12.35 6.00 12.02L6.00 12.02L6.00 12.02Q6.10 11.69 6.10 11.14L6.10 11.14L6.10 11.14Q6.10 10.29 5.75 9.95L5.75 9.95L5.75 9.95Q5.39 9.60 4.73 9.60L4.73 9.60L2.76 9.60L2.76 12.67L4.73 12.67ZM12.64 14.15L12.64 14.15Q11.23 14.15 10.29 13.27L10.29 13.27L10.29 13.27Q9.35 12.38 9.35 10.49L9.35 10.49L9.35 10.49Q9.35 9.21 9.81 8.39L9.81 8.39L9.81 8.39Q10.26 7.57 11.00 7.20L11.00 7.20L11.00 7.20Q11.75 6.83 12.64 6.83L12.64 6.83L12.64 6.83Q13.54 6.83 14.27 7.20L14.27 7.20L14.27 7.20Q15.01 7.57 15.46 8.39L15.46 8.39L15.46 8.39Q15.92 9.21 15.92 10.49L15.92 10.49L15.92 10.49Q15.92 11.77 15.46 12.59L15.46 12.59L15.46 12.59Q15.01 13.41 14.27 13.78L14.27 13.78L14.27 13.78Q13.54 14.15 12.64 14.15L12.64 14.15ZM12.64 12.81L12.64 12.81Q13.30 12.81 13.78 12.27L13.78 12.27L13.78 12.27Q14.27 11.73 14.27 10.49L14.27 10.49L14.27 10.49Q14.27 9.25 13.78 8.71L13.78 8.71L13.78 8.71Q13.30 8.18 12.64 8.18L12.64 8.18L12.64 8.18Q11.97 8.18 11.49 8.71L11.49 8.71L11.49 8.71Q11.00 9.24 11.00 10.49L11.00 10.49L11.00 10.49Q11.00 11.73 11.49 12.27L11.49 12.27L11.49 12.27Q11.97 12.81 12.64 12.81L12.64 12.81ZM24.51 7L22.32 10.47L24.51 14L22.79 14L21.11 11.12L20.75 11.12L19.07 14L17.35 14L19.54 10.47L17.35 7L19.07 7L20.73 9.80L21.13 9.80L22.79 7L24.51 7ZM32.10 8.33L29.64 8.33L29.64 11.83L29.64 11.83Q29.64 12.45 29.83 12.67L29.83 12.67L29.83 12.67Q30.03 12.89 30.39 12.89L30.39 12.89L30.39 12.89Q30.86 12.89 31.67 12.71L31.67 12.71L31.67 14L31.67 14Q31.63 14 31.25 14.08L31.25 14.08L31.25 14.08Q30.87 14.15 30.10 14.15L30.10 14.15L30.10 14.15Q28.07 14.15 28.07 12.29L28.07 12.29L28.07 8.33L26.11 8.33L26.11 7L28.07 7L28.07 4.48L29.64 4.48L29.64 7L32.10 7L32.10 8.33Z"></path></g><!----><g data-v-423bf9ae="" id="c1d2783f-472b-427b-8050-77e3b3e1059a" transform="matrix(1.1538461446762085,0,0,1.1538461446762085,-10.799957275390625,-13.846153259277344)" stroke="none" fill="white"><path d="M9.871 29.925L47.001 50v39.955L9.871 65.912zM89.963 29.925v35.987L53 90V50zM10 24.098l40.12 20.061 39.972-20.061L52.266 12z"></path></g><!----></svg>